ModelForces
version=1
nRows=4
nColumns=155
inDegrees=no

This file contains the forces exerted on a model during a simulation.

A force is a generalized force, meaning that it can be either a force (N) or a torque (Nm).

Units are S.I. units (second, meters, Newtons, ...)
Angles are in degrees.

endheader
time	glut_med1_r	glut_med2_r	glut_med3_r	glut_min1_r	glut_min2_r	glut_min3_r	semimem_r	semiten_r	bifemlh_r	bifemsh_r	sar_r	add_long_r	add_brev_r	add_mag1_r	add_mag2_r	add_mag3_r	tfl_r	pect_r	grac_r	glut_max1_r	glut_max2_r	glut_max3_r	iliacus_r	psoas_r	quad_fem_r	gem_r	peri_r	rect_fem_r	vas_med_r	vas_int_r	vas_lat_r	med_gas_r	lat_gas_r	soleus_r	tib_post_r	flex_dig_r	flex_hal_r	tib_ant_r	per_brev_r	per_long_r	per_tert_r	ext_dig_r	ext_hal_r	glut_med1_l	glut_med2_l	glut_med3_l	glut_min1_l	glut_min2_l	glut_min3_l	semimem_l	semiten_l	bifemlh_l	bifemsh_l	sar_l	add_long_l	add_brev_l	add_mag1_l	add_mag2_l	add_mag3_l	tfl_l	pect_l	grac_l	glut_max1_l	glut_max2_l	glut_max3_l	iliacus_l	psoas_l	quad_fem_l	gem_l	peri_l	rect_fem_l	vas_med_l	vas_int_l	vas_lat_l	med_gas_l	lat_gas_l	soleus_l	tib_post_l	flex_dig_l	flex_hal_l	tib_ant_l	per_brev_l	per_long_l	per_tert_l	ext_dig_l	ext_hal_l	ercspn_r	ercspn_l	intobl_r	intobl_l	extobl_r	extobl_l	femur_lat_meniscii_r.femur_lat_r.force.X	femur_lat_meniscii_r.femur_lat_r.force.Y	femur_lat_meniscii_r.femur_lat_r.force.Z	femur_lat_meniscii_r.femur_lat_r.torque.X	femur_lat_meniscii_r.femur_lat_r.torque.Y	femur_lat_meniscii_r.femur_lat_r.torque.Z	femur_lat_meniscii_r.meniscus_lat_r.force.X	femur_lat_meniscii_r.meniscus_lat_r.force.Y	femur_lat_meniscii_r.meniscus_lat_r.force.Z	femur_lat_meniscii_r.meniscus_lat_r.torque.X	femur_lat_meniscii_r.meniscus_lat_r.torque.Y	femur_lat_meniscii_r.meniscus_lat_r.torque.Z	femur_med_meniscii_r.femur_med_r.force.X	femur_med_meniscii_r.femur_med_r.force.Y	femur_med_meniscii_r.femur_med_r.force.Z	femur_med_meniscii_r.femur_med_r.torque.X	femur_med_meniscii_r.femur_med_r.torque.Y	femur_med_meniscii_r.femur_med_r.torque.Z	femur_med_meniscii_r.meniscus_med_r.force.X	femur_med_meniscii_r.meniscus_med_r.force.Y	femur_med_meniscii_r.meniscus_med_r.force.Z	femur_med_meniscii_r.meniscus_med_r.torque.X	femur_med_meniscii_r.meniscus_med_r.torque.Y	femur_med_meniscii_r.meniscus_med_r.torque.Z	femur_med_tibia_r.tibia_upper_r.force.X	femur_med_tibia_r.tibia_upper_r.force.Y	femur_med_tibia_r.tibia_upper_r.force.Z	femur_med_tibia_r.tibia_upper_r.torque.X	femur_med_tibia_r.tibia_upper_r.torque.Y	femur_med_tibia_r.tibia_upper_r.torque.Z	femur_med_tibia_r.femur_med_r.force.X	femur_med_tibia_r.femur_med_r.force.Y	femur_med_tibia_r.femur_med_r.force.Z	femur_med_tibia_r.femur_med_r.torque.X	femur_med_tibia_r.femur_med_r.torque.Y	femur_med_tibia_r.femur_med_r.torque.Z	femur_lat_tibia_r.tibia_upper_r.force.X	femur_lat_tibia_r.tibia_upper_r.force.Y	femur_lat_tibia_r.tibia_upper_r.force.Z	femur_lat_tibia_r.tibia_upper_r.torque.X	femur_lat_tibia_r.tibia_upper_r.torque.Y	femur_lat_tibia_r.tibia_upper_r.torque.Z	femur_lat_tibia_r.femur_lat_r.force.X	femur_lat_tibia_r.femur_lat_r.force.Y	femur_lat_tibia_r.femur_lat_r.force.Z	femur_lat_tibia_r.femur_lat_r.torque.X	femur_lat_tibia_r.femur_lat_r.torque.Y	femur_lat_tibia_r.femur_lat_r.torque.Z	aACL_R	pACL_R	aPCL_R	pPCL_R	aMCL_R	mMCL_R	pMCL_R	aLCL_R	mLCL_R	pLCL_R	aPCL_L	pPCL_L	aMCL_L	aLCL_L
      0.07583994	      0.00000000	     14.06477375	     14.62068057	      6.53728409	      7.43638340	      6.55054533	      0.00000000	    236.69519251	    320.81948799	    431.84455603	    139.48300020	     14.46340225	     10.09835465	      0.00000000	      0.00000000	     10.64227758	      4.58969916	      0.00000000	    121.73033269	      8.81570025	     14.14752087	     10.76269636	     38.95594809	     31.51648983	      0.00000000	      5.48219355	      0.00000000	     47.10741604	      0.00000000	      0.00000000	      0.00000000	     55.29818644	     28.41881716	      0.00000000	     31.74433283	     11.00126289	      8.76314744	     14.78528473	      3.25353439	     14.73948682	      4.48820455	     15.38281214	      5.21380148	      0.00000000	     14.06477375	     14.62068057	      6.53728409	      7.43638340	      6.55054533	      0.00000000	     11.00624484	      9.08045983	     18.09972684	      3.72116262	     14.46340225	     10.09835465	      0.00000000	      0.00000000	     10.64227758	      8.07533471	      0.00000000	      3.87524725	      8.81570025	     14.14752087	     10.76269636	     38.95594809	     31.51648983	      0.00000000	      5.48219355	      0.00000000	     27.61297274	      0.00000000	      0.00000000	      0.00000000	      0.00000000	      0.00000000	     38.85257132	     59.82601419	     11.02098027	      9.71656160	     10.57374799	     10.18761394	     22.22507414	      4.80291454	      6.85646031	      2.06679706	     61.60148305	     61.60148305	     23.72615667	     23.72615667	     40.29586016	     40.29586016	     30.84179801	    152.11148861	     13.35267939	     -9.15716098	      0.73955774	     13.03152962	    -30.84179801	   -152.11148861	    -13.35267939	      4.53558393	     -0.95500754	      0.09768059	     15.73817241	     68.06780103	      1.04585584	      0.97149678	     -0.29276708	      6.32471225	    -15.73817241	    -68.06780103	     -1.04585584	     -1.15068658	      0.23252299	      0.29264598	    -37.47510309	   -724.91768067	     87.44946746	    -15.32662373	      1.07602281	      3.12632793	     37.47510309	    724.91768067	    -87.44946746	     51.19710565	     -0.44453005	     17.48020439	     -7.73057373	   -453.66072805	    -98.26321169	     15.27219049	     -0.72085552	      2.15992261	      7.73057373	    453.66072805	     98.26321169	    -51.44985413	     -0.15096993	      4.71128637	     90.04816842	     74.83110987	      0.00000000	      0.00000000	      0.00000000	     -5.58960941	    -23.98846866	      0.00000000	      0.00000000	      0.00000000	      0.00000000	      0.00000000	      0.00000001	      0.00000000
      0.07703746	      0.00000000	     13.98691590	     14.60555261	      6.47502769	      7.36758728	      6.69803068	      0.00000000	    236.50922171	    318.21373622	    430.49919192	    139.69798035	     14.31978527	     10.00299161	      0.00000000	      0.00000000	     10.56409858	      4.61698199	      0.00000000	    121.81418075	      8.80270243	     14.02292874	     10.65783116	     38.68717315	     31.21125234	      0.00000000	      5.44436289	      0.00000000	     44.83903922	      0.00000000	      0.00000000	      0.00000000	     51.43079308	     26.27849215	      0.00000000	     30.02073054	     11.45084565	      9.09423288	     26.39780575	      3.07650971	     13.48967065	      7.43190763	     16.84522099	      5.66684703	      0.00000000	     13.98691590	     14.60555261	      6.47502769	      7.36758728	      6.69803068	      0.00000000	     10.89374111	      9.79483106	     17.92391624	      3.68587350	     14.31978527	     10.00299161	      0.00000000	      0.00000000	     10.56409858	      8.03174640	      0.00000000	      3.83793682	      8.80270243	     14.02292874	     10.65783116	     38.68717315	     31.21125234	      0.00000000	      5.44436289	      0.00000000	     27.51694200	      0.00000000	      0.00000000	      0.00000000	      0.00000000	      0.00000000	     40.67447356	     59.80896233	     11.03791065	      9.81400730	     11.48250558	     10.19774896	     22.26462103	      4.76286317	      6.98886454	      2.11896478	     61.01372066	     61.01372066	     23.48859655	     23.48859655	     40.07214371	     40.07214371	     30.26002655	    152.32647560	     13.39739121	     -9.17697070	      0.72142873	     12.77927087	    -30.26002655	   -152.32647560	    -13.39739121	      4.53693856	     -0.93799794	      0.16330267	     15.50646241	     66.51549661	      0.39026951	      1.20861893	     -0.28705179	      6.22614377	    -15.50646241	    -66.51549661	     -0.39026951	     -1.14241468	      0.23330248	      0.30413525	    -50.32692596	   -719.24880678	     86.88373527	    -15.20947324	      1.32320655	      2.85244018	     50.32692596	    719.24880678	    -86.88373527	     50.83817133	     -0.71854380	     22.79086124	     -7.78271077	   -439.13886593	    -94.83314488	     14.76817268	     -0.73433035	      2.22572296	      7.78271077	    439.13886593	     94.83314488	    -49.68565929	     -0.12908889	      4.63805496	     92.26389047	     75.85466150	      0.00000000	      0.00000000	      0.00000000	     -4.35242365	    -23.56313896	      0.00000000	      0.00000000	      0.00000000	      0.00000000	      0.00000000	      0.00000001	      0.00000000
      0.07848406	      0.00000000	     13.88242887	     14.56743003	      6.40120558	      7.28598071	      6.83653785	      0.00000000	    236.33531818	    314.83206781	    428.32511072	    139.98126968	     14.14952153	      9.88990665	      0.00000000	      0.00000000	     10.46812588	      4.64386623	      0.00000000	    121.92271430	      8.77496619	     13.87218737	     10.53300964	     38.36867147	     30.84952888	      0.00000000	      5.39876886	      0.00000000	     44.45901185	      0.00000000	      0.00000000	      0.00000000	     46.85318012	     23.69852313	      0.00000000	     27.70064138	     11.75728406	      9.35596361	     37.99349991	      2.99276696	     12.32737398	      1.08420112	     18.56805818	      6.06162439	      0.00000000	     13.88242887	     14.56743003	      6.40120558	      7.28598071	      6.83653785	      0.00000000	     10.76037506	     10.55471519	     17.71547100	      3.64402756	     14.14952153	      9.88990665	      0.00000000	      0.00000000	     10.46812588	      7.97836309	      0.00000000	      3.79369809	      8.77496619	     13.87218737	     10.53300964	     38.36867147	     30.84952888	      0.00000000	      5.39876886	      0.00000000	     27.39113370	      0.00000000	      0.00000000	      0.00000000	      0.00000000	      0.00000000	     42.68545231	     59.78189007	     11.02429327	      9.89712367	     12.42818062	     10.20184864	     22.30289915	      4.71453547	      7.16094499	      2.18657288	     60.31677800	     60.31677800	     23.20668391	     23.20668391	     39.80709218	     39.80709218	     26.99181230	    154.04705117	     14.35316663	     -9.62229516	      0.64196523	     11.39281527	    -26.99181230	   -154.04705117	    -14.35316663	      4.61944139	     -0.85997421	      0.35509619	     15.97087107	     67.53630084	      0.22362359	      1.28924746	     -0.29016301	      6.40281756	    -15.97087107	    -67.53630084	     -0.22362359	     -1.15663304	      0.23649841	      0.33323691	    -54.36383948	   -712.36055809	     81.40050388	    -14.85921867	      1.40045300	      3.00184444	     54.36383948	    712.36055809	    -81.40050388	     48.35859577	     -0.83464261	     24.32250440	     -0.50087920	   -423.68665766	    -93.19156485	     14.31511504	     -0.58287783	      2.60629380	      0.50087920	    423.68665766	     93.19156485	    -48.66101079	     -0.26770305	      1.44539174	     93.62990376	     75.72618904	      0.00000000	      0.00000000	      0.00000000	     -2.65436168	    -22.87777846	      0.00000000	      0.00000000	      0.00000000	      0.00000000	      0.00000000	      0.00000001	      0.00000000
      0.07924901	      0.00000000	     13.82339677	     14.53946965	      6.36277049	      7.24348362	      6.89472242	      0.00000000	    236.24041012	    312.92307083	    427.08571272	    140.11614306	     14.06088919	      9.83102658	      0.00000000	      0.00000000	     10.41681193	      4.65521444	      0.00000000	    121.97524844	      8.75562570	     13.79256438	     10.46784021	     38.20293396	     30.66129261	      0.00000000	      5.37473593	      0.00000000	     45.79023914	      0.00000000	      0.00000000	      0.00000000	     44.53506556	     22.36857331	      0.00000000	     26.37943580	     11.80444685	      9.42642319	     34.15105776	      3.00199912	     11.85854197	      3.05250983	     19.25106014	      6.14459769	      0.00000000	     13.82339677	     14.53946965	      6.36277049	      7.24348362	      6.89472242	      0.00000000	     10.69095460	     10.91630702	     17.60695670	      3.62224020	     14.06088919	      9.83102658	      0.00000000	      0.00000000	     10.41681193	      7.94985131	      0.00000000	      3.77066674	      8.75562570	     13.79256438	     10.46784021	     38.20293396	     30.66129261	      0.00000000	      5.37473593	      0.00000000	     27.32047428	      0.00000000	      0.00000000	      0.00000000	      0.00000000	      0.00000000	     43.67132812	     59.76470204	     11.00307106	      9.92602995	     12.86983983	     10.20123797	     22.31911988	      4.68904217	      7.25698359	      2.22423789	     59.95392298	     59.95392298	     23.05982444	     23.05982444	     39.66919216	     39.66919216	     26.07579580	    155.55377658	     13.23978244	     -9.18870420	      0.63176050	     11.00157949	    -26.07579580	   -155.55377658	    -13.23978244	      4.61637302	     -0.83842411	      0.43172618	     16.97239294	     69.03446714	      0.09837364	      1.36885048	     -0.31424943	      6.81062623	    -16.97239294	    -69.03446714	     -0.09837364	     -1.18376335	      0.25856530	      0.33308333	    -56.21096085	   -707.18513299	     81.19399999	    -14.75894413	      1.45552072	      3.07991542	     56.21096085	    707.18513299	    -81.19399999	     48.15997734	     -0.88561851	     25.00751149	      3.18840114	   -417.54194041	    -90.42562340	     14.04888895	     -0.49297339	      2.80938952	     -3.18840114	    417.54194041	     90.42562340	    -47.35832065	     -0.33346742	     -0.16777246	     94.12520246	     75.44814356	      0.00000000	      0.00000000	      0.00000000	     -2.40865628	    -23.16302929	      0.00000000	      0.00000000	      0.00000000	      0.00000000	      0.00000000	      0.00000001	      0.00000000
